<svg height="512pt" viewBox="0 -56 512.0009 512" width="512pt" xmlns="http://www.w3.org/2000/svg"><path d="m511.910156 230.285156c-.300781-8.097656-7.5-14.097656-15.300781-14.394531-16.796875.898437-32.992187-10.199219-40.488281-26.097656h-64.191406c-5.097657 0-9.898438.597656-14.695313 1.800781-7.800781 1.800781-15.601563-2.398438-18-9.898438-3.898437-12.296874-14.996094-20.695312-27.894531-20.695312-16.195313 0-29.394532 13.195312-29.394532 29.390625 0 10.199219 5.101563 19.5 13.5 24.898437 4.496094 2.699219 7.199219 7.796876 6.898438 13.195313 0 5.101563-3 9.898437-7.800781 12.597656-10.496094 5.699219-21.894531 8.699219-33.894531 8.699219h-48.890626c-34.792968 0-67.785156 15.597656-89.984374 42.59375-11.394532 13.796875-16.195313 29.992188-19.792969 47.390625v44.992187c0 8.398438 6.597656 14.996094 14.996093 14.996094h89.984376c8.289062 0 14.996093-6.707031 14.996093-14.996094 0-8.289062-6.707031-14.996093-14.996093-14.996093h-14.996094v-29.996094h59.988281v44.992187c0 8.289063 6.707031 14.996094 14.996094 14.996094h89.984375c8.289062 0 14.996094-6.707031 14.996094-14.996094 0-8.289062-6.707032-14.996093-14.996094-14.996093h-14.996094v-29.996094h44.988281c28.796875 0 55.792969-11.398437 75.890625-32.394531 19.792969-20.695313 30.289063-48.289063 29.09375-77.085938zm-104.984375 19.496094c-8.398437 0-14.996093-6.597656-14.996093-14.996094 0-8.398437 6.597656-14.996094 14.996093-14.996094 8.402344 0 15 6.597657 15 14.996094 0 8.398438-6.597656 14.996094-15 14.996094zm0 0"/><path d="m231.757812 219.789062h47.992188c-5.097656-8.699218-7.796875-18.898437-7.796875-29.398437 0-32.691406 26.695313-59.386719 59.386719-59.386719 21.296875 0 40.492187 11.398438 50.992187 29.394532 3.296875-.296876 6.296875-.597657 9.597657-.597657h37.492187l16.195313-39.292969c1.800781-4.5 1.503906-9.902343-1.5-14.101562-2.695313-4.199219-7.195313-6.597656-12.296876-6.597656h-39.890624v-63.585938c0-6-3.300782-11.097656-8.695313-13.800781-5.101563-2.398437-11.398437-1.5-15.898437 2.101563l-44.390626 35.992187-22.199218-52.191406c-4.796875-11.097657-22.792969-11.097657-27.59375 0l-22.199219 52.492187-44.988281-35.394531c-4.5-3.300781-10.5-4.199219-15.597656-1.5-5.402344 2.398437-8.699219 7.796875-8.699219 13.496094l.300781 50.390625-56.691406-34.792969c-5.398438-3-11.699219-3-16.796875.597656-4.796875 3.601563-7.199219 9.898438-5.699219 15.898438l14.996094 60.289062h-56.984375c-5.699219 0-11.097657 3.300781-13.5 8.398438-2.398438 5.101562-1.800781 11.097656 1.5 15.898437l34.195312 44.09375-56.691406 22.796875c-5.097656 1.796875-8.699219 6.597657-9.296875 12.296875-.601562 5.398438 1.796875 10.796875 6.597656 14.097656l31.492188 20.996094-52.003906 47.089844c-3.296876 4.5-4.195313 10.800781-1.496094 15.898438 2.398437 5.097656 8.796875 8.398437 14.496094 8.398437h71.699218c4.5-24.296875 14.699219-47.09375 30.894532-66.589844 27.894531-33.890625 69.289062-53.386719 113.078124-53.386719zm0 0"/></svg>